<svg width="216" height="52" viewBox="0 0 216 52" fill="none" xmlns="http://www.w3.org/2000/svg">
<path d="M27.125 26H40.875" stroke="#8B5CF6" stroke-width="1.88" stroke-linecap="round" stroke-linejoin="round"/>
<path d="M34 19.125V32.875" stroke="#8B5CF6" stroke-width="1.88" stroke-linecap="round" stroke-linejoin="round"/>
<path d="M57.1477 32V20.3636H61.5114C62.4053 20.3636 63.1553 20.5189 63.7614 20.8295C64.3712 21.1402 64.8314 21.5758 65.142 22.1364C65.4564 22.6932 65.6136 23.3428 65.6136 24.0852C65.6136 24.8314 65.4545 25.4792 65.1364 26.0284C64.822 26.5739 64.358 26.9962 63.7443 27.2955C63.1307 27.5909 62.3769 27.7386 61.483 27.7386H58.375V25.9886H61.1989C61.7216 25.9886 62.1496 25.9167 62.483 25.7727C62.8163 25.625 63.0625 25.411 63.2216 25.1307C63.3845 24.8466 63.4659 24.4981 63.4659 24.0852C63.4659 23.6723 63.3845 23.3201 63.2216 23.0284C63.0587 22.733 62.8106 22.5095 62.4773 22.358C62.1439 22.2027 61.714 22.125 61.1875 22.125H59.2557V32H57.1477ZM63.1591 26.7273L66.0398 32H63.6875L60.858 26.7273H63.1591ZM71.2017 32.1705C70.3267 32.1705 69.571 31.9886 68.9347 31.625C68.3021 31.2576 67.8153 30.7386 67.4744 30.0682C67.1335 29.3939 66.9631 28.6004 66.9631 27.6875C66.9631 26.7898 67.1335 26.0019 67.4744 25.3239C67.8191 24.642 68.3002 24.1117 68.9176 23.733C69.535 23.3504 70.2604 23.1591 71.0938 23.1591C71.6316 23.1591 72.1392 23.2462 72.6165 23.4205C73.0975 23.5909 73.5218 23.8561 73.8892 24.2159C74.2604 24.5758 74.5521 25.0341 74.7642 25.5909C74.9763 26.1439 75.0824 26.803 75.0824 27.5682V28.1989H67.929V26.8125H73.1108C73.107 26.4186 73.0218 26.0682 72.8551 25.7614C72.6884 25.4508 72.4555 25.2064 72.1562 25.0284C71.8608 24.8504 71.5161 24.7614 71.1222 24.7614C70.7017 24.7614 70.3324 24.8636 70.0142 25.0682C69.696 25.2689 69.4479 25.5341 69.2699 25.8636C69.0956 26.1894 69.0066 26.5473 69.0028 26.9375V28.1477C69.0028 28.6553 69.0956 29.0909 69.2812 29.4545C69.4669 29.8144 69.7263 30.0909 70.0597 30.2841C70.393 30.4735 70.7831 30.5682 71.2301 30.5682C71.5294 30.5682 71.8002 30.5265 72.0426 30.4432C72.285 30.3561 72.4953 30.2292 72.6733 30.0625C72.8513 29.8958 72.9858 29.6894 73.0767 29.4432L74.9972 29.6591C74.8759 30.1667 74.6449 30.6098 74.304 30.9886C73.9669 31.3636 73.535 31.6553 73.0085 31.8636C72.482 32.0682 71.8797 32.1705 71.2017 32.1705ZM80.6179 35.4545C79.8793 35.4545 79.2448 35.3542 78.7145 35.1534C78.1842 34.9564 77.758 34.6913 77.4361 34.358C77.1141 34.0246 76.8906 33.6553 76.7656 33.25L78.6179 32.8011C78.7012 32.9716 78.8224 33.1402 78.9815 33.3068C79.1406 33.4773 79.3546 33.6174 79.6236 33.7273C79.8963 33.8409 80.2391 33.8977 80.652 33.8977C81.2353 33.8977 81.7183 33.7557 82.1009 33.4716C82.4834 33.1913 82.6747 32.7292 82.6747 32.0852V30.4318H82.5724C82.4664 30.6439 82.3111 30.8617 82.1065 31.0852C81.9058 31.3087 81.6387 31.4962 81.3054 31.6477C80.9759 31.7992 80.5611 31.875 80.0611 31.875C79.3906 31.875 78.7827 31.7178 78.2372 31.4034C77.6955 31.0852 77.2637 30.6117 76.9418 29.983C76.6236 29.3504 76.4645 28.5587 76.4645 27.608C76.4645 26.6496 76.6236 25.8409 76.9418 25.1818C77.2637 24.5189 77.6974 24.017 78.2429 23.6761C78.7884 23.3314 79.3963 23.1591 80.0668 23.1591C80.5781 23.1591 80.9986 23.2462 81.3281 23.4205C81.6615 23.5909 81.9266 23.7973 82.1236 24.0398C82.3205 24.2784 82.4702 24.5038 82.5724 24.7159H82.6861V23.2727H84.7145V32.142C84.7145 32.8883 84.5365 33.5057 84.1804 33.9943C83.8243 34.483 83.3376 34.8485 82.7202 35.0909C82.1027 35.3333 81.402 35.4545 80.6179 35.4545ZM80.6349 30.2614C81.0705 30.2614 81.4418 30.1553 81.7486 29.9432C82.0554 29.7311 82.2884 29.4261 82.4474 29.0284C82.6065 28.6307 82.6861 28.1534 82.6861 27.5966C82.6861 27.0473 82.6065 26.5663 82.4474 26.1534C82.2921 25.7405 82.0611 25.4205 81.7543 25.1932C81.4512 24.9621 81.0781 24.8466 80.6349 24.8466C80.1766 24.8466 79.794 24.9659 79.4872 25.2045C79.1804 25.4432 78.9493 25.7708 78.794 26.1875C78.6387 26.6004 78.5611 27.0701 78.5611 27.5966C78.5611 28.1307 78.6387 28.5985 78.794 29C78.9531 29.3977 79.1861 29.7083 79.4929 29.9318C79.8035 30.1515 80.1842 30.2614 80.6349 30.2614ZM86.8224 32V23.2727H88.8793V32H86.8224ZM87.8565 22.0341C87.5308 22.0341 87.2505 21.9261 87.0156 21.7102C86.7808 21.4905 86.6634 21.2273 86.6634 20.9205C86.6634 20.6098 86.7808 20.3466 87.0156 20.1307C87.2505 19.911 87.5308 19.8011 87.8565 19.8011C88.1861 19.8011 88.4664 19.911 88.6974 20.1307C88.9323 20.3466 89.0497 20.6098 89.0497 20.9205C89.0497 21.2273 88.9323 21.4905 88.6974 21.7102C88.4664 21.9261 88.1861 22.0341 87.8565 22.0341ZM97.892 25.5795L96.017 25.7841C95.964 25.5947 95.8712 25.4167 95.7386 25.25C95.6098 25.0833 95.4356 24.9489 95.2159 24.8466C94.9962 24.7443 94.7273 24.6932 94.4091 24.6932C93.9811 24.6932 93.6212 24.786 93.3295 24.9716C93.0417 25.1572 92.8996 25.3977 92.9034 25.6932C92.8996 25.947 92.9924 26.1534 93.1818 26.3125C93.375 26.4716 93.6932 26.6023 94.1364 26.7045L95.625 27.0227C96.4508 27.2008 97.0644 27.483 97.4659 27.8693C97.8712 28.2557 98.0758 28.7614 98.0795 29.3864C98.0758 29.9356 97.9148 30.4205 97.5966 30.8409C97.2822 31.2576 96.8447 31.5833 96.2841 31.8182C95.7235 32.053 95.0795 32.1705 94.3523 32.1705C93.2841 32.1705 92.4242 31.947 91.7727 31.5C91.1212 31.0492 90.733 30.4223 90.608 29.6193L92.6136 29.4261C92.7045 29.8201 92.8977 30.1174 93.1932 30.3182C93.4886 30.5189 93.8731 30.6193 94.3466 30.6193C94.8352 30.6193 95.2273 30.5189 95.5227 30.3182C95.822 30.1174 95.9716 29.8693 95.9716 29.5739C95.9716 29.3239 95.875 29.1174 95.6818 28.9545C95.4924 28.7917 95.197 28.6667 94.7955 28.5795L93.3068 28.267C92.4697 28.0928 91.8504 27.7992 91.4489 27.3864C91.0473 26.9697 90.8485 26.4432 90.8523 25.8068C90.8485 25.2689 90.9943 24.803 91.2898 24.4091C91.589 24.0114 92.0038 23.7045 92.5341 23.4886C93.0682 23.2689 93.6837 23.1591 94.3807 23.1591C95.4034 23.1591 96.2083 23.3769 96.7955 23.8125C97.3864 24.2481 97.7519 24.8371 97.892 25.5795ZM104.134 23.2727V24.8636H99.1165V23.2727H104.134ZM100.355 21.1818H102.412V29.375C102.412 29.6515 102.454 29.8636 102.537 30.0114C102.624 30.1553 102.738 30.2538 102.878 30.3068C103.018 30.3598 103.173 30.3864 103.344 30.3864C103.473 30.3864 103.59 30.3769 103.696 30.358C103.806 30.339 103.889 30.322 103.946 30.3068L104.293 31.9148C104.183 31.9527 104.026 31.9943 103.821 32.0398C103.62 32.0852 103.374 32.1117 103.082 32.1193C102.567 32.1345 102.103 32.0568 101.69 31.8864C101.277 31.7121 100.95 31.4432 100.707 31.0795C100.469 30.7159 100.351 30.2614 100.355 29.7159V21.1818ZM105.854 32V23.2727H107.848V24.7273H107.939C108.098 24.2235 108.371 23.8352 108.757 23.5625C109.147 23.286 109.592 23.1477 110.092 23.1477C110.206 23.1477 110.333 23.1534 110.473 23.1648C110.617 23.1723 110.736 23.1856 110.831 23.2045V25.0966C110.744 25.0663 110.606 25.0398 110.416 25.017C110.231 24.9905 110.051 24.9773 109.876 24.9773C109.501 24.9773 109.164 25.0587 108.865 25.2216C108.57 25.3807 108.337 25.6023 108.166 25.8864C107.996 26.1705 107.911 26.4981 107.911 26.8693V32H105.854ZM114.553 32.1761C114 32.1761 113.501 32.0777 113.058 31.8807C112.619 31.6799 112.27 31.3845 112.013 30.9943C111.759 30.6042 111.632 30.1231 111.632 29.5511C111.632 29.0587 111.723 28.6515 111.905 28.3295C112.087 28.0076 112.335 27.75 112.649 27.5568C112.964 27.3636 113.318 27.2178 113.712 27.1193C114.109 27.017 114.52 26.9432 114.945 26.8977C115.456 26.8447 115.871 26.7973 116.189 26.7557C116.507 26.7102 116.738 26.642 116.882 26.5511C117.03 26.4564 117.104 26.3106 117.104 26.1136V26.0795C117.104 25.6515 116.977 25.3201 116.723 25.0852C116.469 24.8504 116.104 24.733 115.626 24.733C115.123 24.733 114.723 24.8428 114.428 25.0625C114.136 25.2822 113.939 25.5417 113.837 25.8409L111.916 25.5682C112.068 25.0379 112.318 24.5947 112.666 24.2386C113.015 23.8788 113.441 23.6098 113.945 23.4318C114.448 23.25 115.005 23.1591 115.615 23.1591C116.036 23.1591 116.454 23.2083 116.871 23.3068C117.287 23.4053 117.668 23.5682 118.013 23.7955C118.357 24.0189 118.634 24.3239 118.842 24.7102C119.054 25.0966 119.161 25.5795 119.161 26.1591V32H117.183V30.8011H117.115C116.99 31.0436 116.814 31.2708 116.587 31.483C116.363 31.6913 116.081 31.8598 115.74 31.9886C115.403 32.1136 115.007 32.1761 114.553 32.1761ZM115.087 30.6648C115.5 30.6648 115.857 30.5833 116.161 30.4205C116.464 30.2538 116.696 30.0341 116.859 29.7614C117.026 29.4886 117.109 29.1913 117.109 28.8693V27.8409C117.045 27.8939 116.935 27.9432 116.78 27.9886C116.628 28.0341 116.458 28.0739 116.268 28.108C116.079 28.142 115.892 28.1723 115.706 28.1989C115.52 28.2254 115.359 28.2481 115.223 28.267C114.916 28.3087 114.642 28.3769 114.399 28.4716C114.157 28.5663 113.965 28.6989 113.825 28.8693C113.685 29.036 113.615 29.2519 113.615 29.517C113.615 29.8958 113.753 30.1818 114.03 30.375C114.306 30.5682 114.659 30.6648 115.087 30.6648ZM121.229 32V23.2727H123.223V24.7273H123.314C123.473 24.2235 123.746 23.8352 124.132 23.5625C124.522 23.286 124.967 23.1477 125.467 23.1477C125.581 23.1477 125.708 23.1534 125.848 23.1648C125.992 23.1723 126.111 23.1856 126.206 23.2045V25.0966C126.119 25.0663 125.981 25.0398 125.791 25.017C125.606 24.9905 125.426 24.9773 125.251 24.9773C124.876 24.9773 124.539 25.0587 124.24 25.2216C123.945 25.3807 123.712 25.6023 123.541 25.8864C123.371 26.1705 123.286 26.4981 123.286 26.8693V32H121.229ZM131.541 32V23.2727H133.507V24.7557H133.609C133.791 24.2557 134.092 23.8655 134.513 23.5852C134.933 23.3011 135.435 23.1591 136.018 23.1591C136.609 23.1591 137.107 23.303 137.513 23.5909C137.922 23.875 138.21 24.2633 138.376 24.7557H138.467C138.661 24.2708 138.986 23.8845 139.445 23.5966C139.907 23.3049 140.454 23.1591 141.087 23.1591C141.89 23.1591 142.545 23.4129 143.053 23.9205C143.56 24.428 143.814 25.1686 143.814 26.142V32H141.751V26.4602C141.751 25.9186 141.607 25.5227 141.32 25.2727C141.032 25.0189 140.679 24.892 140.263 24.892C139.767 24.892 139.378 25.0473 139.098 25.358C138.821 25.6648 138.683 26.0644 138.683 26.5568V32H136.666V26.375C136.666 25.9242 136.53 25.5644 136.257 25.2955C135.988 25.0265 135.636 24.892 135.2 24.892C134.905 24.892 134.636 24.9678 134.393 25.1193C134.151 25.267 133.958 25.4773 133.814 25.75C133.67 26.0189 133.598 26.3333 133.598 26.6932V32H131.541ZM149.764 32.1705C148.889 32.1705 148.134 31.9886 147.497 31.625C146.865 31.2576 146.378 30.7386 146.037 30.0682C145.696 29.3939 145.526 28.6004 145.526 27.6875C145.526 26.7898 145.696 26.0019 146.037 25.3239C146.382 24.642 146.863 24.1117 147.48 23.733C148.098 23.3504 148.823 23.1591 149.656 23.1591C150.194 23.1591 150.702 23.2462 151.179 23.4205C151.66 23.5909 152.084 23.8561 152.452 24.2159C152.823 24.5758 153.115 25.0341 153.327 25.5909C153.539 26.1439 153.645 26.803 153.645 27.5682V28.1989H146.491V26.8125H151.673C151.67 26.4186 151.584 26.0682 151.418 25.7614C151.251 25.4508 151.018 25.2064 150.719 25.0284C150.423 24.8504 150.079 24.7614 149.685 24.7614C149.264 24.7614 148.895 24.8636 148.577 25.0682C148.259 25.2689 148.01 25.5341 147.832 25.8636C147.658 26.1894 147.569 26.5473 147.565 26.9375V28.1477C147.565 28.6553 147.658 29.0909 147.844 29.4545C148.029 29.8144 148.289 30.0909 148.622 30.2841C148.955 30.4735 149.346 30.5682 149.793 30.5682C150.092 30.5682 150.363 30.5265 150.605 30.4432C150.848 30.3561 151.058 30.2292 151.236 30.0625C151.414 29.8958 151.548 29.6894 151.639 29.4432L153.56 29.6591C153.438 30.1667 153.207 30.6098 152.866 30.9886C152.529 31.3636 152.098 31.6553 151.571 31.8636C151.045 32.0682 150.442 32.1705 149.764 32.1705ZM160.947 28.3295V23.2727H163.004V32H161.01V30.4489H160.919C160.722 30.9375 160.398 31.3371 159.947 31.6477C159.5 31.9583 158.949 32.1136 158.294 32.1136C157.722 32.1136 157.216 31.9867 156.777 31.733C156.341 31.4754 156 31.1023 155.754 30.6136C155.508 30.1212 155.385 29.5265 155.385 28.8295V23.2727H157.442V28.5114C157.442 29.0644 157.593 29.5038 157.896 29.8295C158.199 30.1553 158.597 30.3182 159.089 30.3182C159.393 30.3182 159.686 30.2443 159.97 30.0966C160.254 29.9489 160.487 29.7292 160.669 29.4375C160.855 29.142 160.947 28.7727 160.947 28.3295ZM172.327 32.1534C171.641 32.1534 171.027 31.9773 170.486 31.625C169.944 31.2727 169.516 30.7614 169.202 30.0909C168.887 29.4205 168.73 28.6061 168.73 27.6477C168.73 26.678 168.889 25.8598 169.207 25.1932C169.529 24.5227 169.963 24.017 170.509 23.6761C171.054 23.3314 171.662 23.1591 172.332 23.1591C172.844 23.1591 173.264 23.2462 173.594 23.4205C173.923 23.5909 174.185 23.7973 174.378 24.0398C174.571 24.2784 174.721 24.5038 174.827 24.7159H174.912V20.3636H176.974V32H174.952V30.625H174.827C174.721 30.8371 174.567 31.0625 174.366 31.3011C174.166 31.536 173.901 31.7367 173.571 31.9034C173.241 32.0701 172.827 32.1534 172.327 32.1534ZM172.901 30.4659C173.336 30.4659 173.707 30.3485 174.014 30.1136C174.321 29.875 174.554 29.5436 174.713 29.1193C174.872 28.6951 174.952 28.2008 174.952 27.6364C174.952 27.072 174.872 26.5814 174.713 26.1648C174.558 25.7481 174.327 25.4242 174.02 25.1932C173.717 24.9621 173.344 24.8466 172.901 24.8466C172.442 24.8466 172.06 24.9659 171.753 25.2045C171.446 25.4432 171.215 25.7727 171.06 26.1932C170.904 26.6136 170.827 27.0947 170.827 27.6364C170.827 28.1818 170.904 28.6686 171.06 29.0966C171.219 29.5208 171.452 29.8561 171.759 30.1023C172.069 30.3447 172.45 30.4659 172.901 30.4659ZM179.166 32V23.2727H181.223V32H179.166ZM180.2 22.0341C179.875 22.0341 179.594 21.9261 179.359 21.7102C179.125 21.4905 179.007 21.2273 179.007 20.9205C179.007 20.6098 179.125 20.3466 179.359 20.1307C179.594 19.911 179.875 19.8011 180.2 19.8011C180.53 19.8011 180.81 19.911 181.041 20.1307C181.276 20.3466 181.393 20.6098 181.393 20.9205C181.393 21.2273 181.276 21.4905 181.041 21.7102C180.81 21.9261 180.53 22.0341 180.2 22.0341ZM185.849 32.1761C185.296 32.1761 184.798 32.0777 184.355 31.8807C183.916 31.6799 183.567 31.3845 183.31 30.9943C183.056 30.6042 182.929 30.1231 182.929 29.5511C182.929 29.0587 183.02 28.6515 183.202 28.3295C183.384 28.0076 183.632 27.75 183.946 27.5568C184.26 27.3636 184.615 27.2178 185.009 27.1193C185.406 27.017 185.817 26.9432 186.241 26.8977C186.753 26.8447 187.168 26.7973 187.486 26.7557C187.804 26.7102 188.035 26.642 188.179 26.5511C188.327 26.4564 188.401 26.3106 188.401 26.1136V26.0795C188.401 25.6515 188.274 25.3201 188.02 25.0852C187.766 24.8504 187.401 24.733 186.923 24.733C186.42 24.733 186.02 24.8428 185.724 25.0625C185.433 25.2822 185.236 25.5417 185.134 25.8409L183.213 25.5682C183.365 25.0379 183.615 24.5947 183.963 24.2386C184.312 23.8788 184.738 23.6098 185.241 23.4318C185.745 23.25 186.302 23.1591 186.912 23.1591C187.332 23.1591 187.751 23.2083 188.168 23.3068C188.584 23.4053 188.965 23.5682 189.31 23.7955C189.654 24.0189 189.931 24.3239 190.139 24.7102C190.351 25.0966 190.457 25.5795 190.457 26.1591V32H188.48V30.8011H188.412C188.287 31.0436 188.111 31.2708 187.884 31.483C187.66 31.6913 187.378 31.8598 187.037 31.9886C186.7 32.1136 186.304 32.1761 185.849 32.1761ZM186.384 30.6648C186.796 30.6648 187.154 30.5833 187.457 30.4205C187.76 30.2538 187.993 30.0341 188.156 29.7614C188.323 29.4886 188.406 29.1913 188.406 28.8693V27.8409C188.342 27.8939 188.232 27.9432 188.077 27.9886C187.925 28.0341 187.755 28.0739 187.565 28.108C187.376 28.142 187.188 28.1723 187.003 28.1989C186.817 28.2254 186.656 28.2481 186.52 28.267C186.213 28.3087 185.938 28.3769 185.696 28.4716C185.454 28.5663 185.262 28.6989 185.122 28.8693C184.982 29.036 184.912 29.2519 184.912 29.517C184.912 29.8958 185.05 30.1818 185.327 30.375C185.603 30.5682 185.955 30.6648 186.384 30.6648Z" fill="white"/>
<rect x="0.5" y="0.5" width="215" height="51" rx="7.5" stroke="#8B5CF6"/>
</svg>
